<?xml version="1.0" encoding="UTF-8" standalone="no"?>
<!-- Created with Inkscape (http://www.inkscape.org/) -->
<svg
   xmlns:dc="http://purl.org/dc/elements/1.1/"
   xmlns:cc="http://web.resource.org/cc/"
   xmlns:rdf="http://www.w3.org/1999/02/22-rdf-syntax-ns#"
   xmlns:svg="http://www.w3.org/2000/svg"
   xmlns="http://www.w3.org/2000/svg"
   xmlns:sodipodi="http://sodipodi.sourceforge.net/DTD/sodipodi-0.dtd"
   xmlns:inkscape="http://www.inkscape.org/namespaces/inkscape"
   width="353.28pt"
   height="362.89001pt"
   id="svg5727"
   sodipodi:version="0.32"
   inkscape:version="0.45.1"
   sodipodi:docbase="C:\Documents and Settings\Molumen\Desktop"
   sodipodi:docname="alst_hammer.svg"
   version="1.0"
   inkscape:output_extension="org.inkscape.output.svg.inkscape">
  <defs
     id="defs5729" />
  <sodipodi:namedview
     id="base"
     pagecolor="#ffffff"
     bordercolor="#666666"
     borderopacity="1.0"
     inkscape:pageopacity="0.0"
     inkscape:pageshadow="2"
     inkscape:zoom="0.31579701"
     inkscape:cx="599.9361"
     inkscape:cy="301.78681"
     inkscape:document-units="px"
     inkscape:current-layer="layer1"
     inkscape:window-width="1272"
     inkscape:window-height="721"
     inkscape:window-x="176"
     inkscape:window-y="232"
     showguides="true"
     inkscape:guide-bbox="true"
     borderlayer="top" />
  <metadata
     id="metadata5732">
    <rdf:RDF>
      <cc:Work
         rdf:about="">
        <dc:format>image/svg+xml</dc:format>
        <dc:type
           rdf:resource="http://purl.org/dc/dcmitype/StillImage" />
        <dc:title>Black hammer</dc:title>
        <dc:creator>
          <cc:Agent>
            <dc:title>Alexandre Saint</dc:title>
          </cc:Agent>
        </dc:creator>
        <dc:rights>
          <cc:Agent>
            <dc:title />
          </cc:Agent>
        </dc:rights>
        <dc:description>Black hammer</dc:description>
        <cc:license
           rdf:resource="http://web.resource.org/cc/PublicDomain" />
      </cc:Work>
      <cc:License
         rdf:about="http://web.resource.org/cc/PublicDomain">
        <cc:permits
           rdf:resource="http://web.resource.org/cc/Reproduction" />
        <cc:permits
           rdf:resource="http://web.resource.org/cc/Distribution" />
        <cc:permits
           rdf:resource="http://web.resource.org/cc/DerivativeWorks" />
      </cc:License>
    </rdf:RDF>
  </metadata>
  <g
     inkscape:label="Calque 1"
     inkscape:groupmode="layer"
     id="layer1">
    <path
       style="opacity:1;fill:#000000;fill-opacity:1;stroke:none;stroke-width:3.24300003;stroke-linecap:round;stroke-linejoin:round;stroke-miterlimit:4;stroke-dasharray:none;stroke-opacity:1"
       d="M 107.90535,1.5853105 C 100.95063,3.1664905 94.83992,9.0410105 92.09285,15.49156 C 90.12179,21.8132 94.4392,27.75932 99.5616,30.89781 C 104.59828,36.34672 101.6332,44.71727 96.03035,48.46031 C 89.42213,55.95316 78.86818,62.08163 69.03035,57.21031 C 64.10599,55.43094 60.92478,50.86584 56.59285,48.36656 C 49.01448,51.46036 45.808,60.13593 39.26925,64.78549 C 25.45922,77.52549 16.89193,94.84766 9.9292296,111.99039 C -2.0946704,143.14987 -2.6413504,181.63636 18.3116,209.14781 C 19.98436,213.30147 26.10129,213.83097 24.1866,208.24156 C 22.12604,185.52882 23.6684,160.48649 36.4366,140.83531 C 44.56345,127.6924 61.33811,123.00429 75.85931,126.25665 C 88.38428,128.47007 100.97077,133.63844 109.03035,144.08531 C 151.82849,187.41217 195.39357,230.27539 238.21785,273.55406 C 235.93808,278.23154 235.98818,283.70445 239.59285,287.77281 C 246.88621,295.4422 254.93651,302.34658 262.15535,310.14781 C 309.5453,357.15381 356.04809,405.17368 404.15535,451.3666 C 411.8334,455.555 419.59155,449.0661 423.6866,442.9916 C 429.75056,436.4675 439.97049,430.9202 440.46785,421.0541 C 438.65318,410.9339 427.87236,406.6049 422.18232,398.92478 C 372.26267,349.4495 323.29804,298.90876 272.65535,250.24156 C 268.97677,248.15361 264.47856,249.2338 260.90535,250.99156 C 215.39329,206.11497 170.20427,160.87057 125.21112,115.36556 C 118.08541,109.36134 111.74119,100.84962 113.8116,90.99156 C 115.339,82.39554 122.1775,75.70927 128.8116,70.61656 C 134.14396,66.63986 140.29671,70.81294 143.54996,75.35492 C 147.7138,80.73153 155.84723,81.71304 160.78035,76.74156 C 166.58352,72.18344 173.34538,64.13802 168.15535,56.64781 C 162.26529,48.98958 154.13419,43.41674 147.85958,36.01352 C 136.1252,24.6003 125.31148,11.98034 112.34285,2.0853105 C 110.9294,1.5837205 109.39632,1.4042405 107.90535,1.5853105 z "
       id="rect1644" />
  </g>
</svg>
